<svg width="30" height="30" viewBox="0 0 30 30" fill="none" xmlns="http://www.w3.org/2000/svg">
<g clip-path="url(#clip0_2_234)">
<path d="M26.2793 -1.91797C26.1855 -1.87109 25.8516 -1.58398 25.5469 -1.27344L24.9902 -0.710938L26.8535 1.14648L28.7109 3.00977L29.2969 2.42383C29.9355 1.79102 30.0469 1.58594 29.9766 1.18164C29.9355 0.988281 29.748 0.771484 28.5469 -0.441406C27.7852 -1.20898 27.0762 -1.87109 26.9707 -1.91797C26.7363 -2.01758 26.5078 -2.01758 26.2793 -1.91797Z" fill="#E2433D"/>
<path d="M20.3555 -1.44922C19.875 -1.33203 19.5938 -1.12109 18.7383 -0.259767L17.9297 0.548827L22.6934 5.3125L27.4512 10.0703L28.3125 9.20898C28.7812 8.72852 29.2207 8.23633 29.2852 8.10742C29.584 7.50977 29.5781 6.77734 29.2617 6.20898C29.1621 6.01562 27.9844 4.80273 25.5293 2.35352C21.6211 -1.54297 21.7559 -1.42578 21.0059 -1.49609C20.8008 -1.51367 20.5312 -1.49609 20.3555 -1.44922Z" fill="#E2433D"/>
<path d="M13.9922 -1.3457C13.5762 -1.1875 13.2656 -0.958984 12.7383 -0.414062C12.1289 0.201172 12.0117 0.441406 12.123 0.833984C12.1758 1.0332 12.5449 1.42578 14.4434 3.32422L16.6992 5.58008L13.1426 9.13672L9.58008 12.6992L7.29492 10.4199C5.17383 8.30469 4.99219 8.13477 4.76367 8.09961C4.58203 8.07031 4.45312 8.08789 4.26562 8.17578C3.93164 8.32812 2.99414 9.28906 2.77734 9.71094C2.625 10.0039 2.60742 10.0859 2.60742 10.6191C2.60742 11.1699 2.61914 11.2285 2.80078 11.5566C2.95898 11.8496 3.95508 12.875 8.57227 17.4863C13.084 21.9922 14.2148 23.0938 14.4727 23.2285C14.7656 23.375 14.8535 23.3926 15.3809 23.3926C15.9141 23.3926 15.9961 23.375 16.2891 23.2227C16.7109 23.0059 17.6719 22.0684 17.8242 21.7344C17.9121 21.5469 17.9297 21.418 17.9004 21.2363C17.8594 21.0078 17.6953 20.8262 15.5801 18.7051L13.3008 16.4199L16.8633 12.8574L20.4199 9.30078L22.6758 11.5566C25.1426 14.0293 25.1309 14.0176 25.6348 13.8711C25.9629 13.7715 26.9355 12.8164 27.1992 12.3242C27.3809 11.9844 27.3926 11.9316 27.3926 11.3809C27.3926 10.8535 27.375 10.7656 27.2285 10.4727C27.0938 10.2148 25.9922 9.08398 21.4863 4.57227C15.2227 -1.70312 15.5918 -1.375 14.707 -1.4043C14.3848 -1.41602 14.1328 -1.39258 13.9922 -1.3457Z" fill="#E2433D"/>
<path d="M1.6874 14.791C1.21865 15.2715 0.779197 15.7637 0.714744 15.8926C0.427635 16.4668 0.421775 17.1875 0.708885 17.75C0.884666 18.1016 7.82217 25.0567 8.20888 25.2676C8.79482 25.584 9.53896 25.584 10.1425 25.2559C10.289 25.1797 10.7811 24.7402 11.2382 24.2832L12.0702 23.4512L7.30654 18.6875L2.54873 13.9297L1.6874 14.791Z" fill="#E2433D"/>
<path d="M0.662066 21.6231C0.187456 22.1035 0.0585499 22.2676 0.029253 22.4492C-0.0586376 22.9004 0.0175343 23 1.53511 24.5176C2.77144 25.7422 2.98824 25.9356 3.1816 25.9766C3.58589 26.0469 3.79097 25.9356 4.42378 25.2969L5.00972 24.711L3.16402 22.8652C2.15035 21.8516 1.3066 21.0195 1.28316 21.0195C1.26558 21.0195 0.984331 21.2891 0.662066 21.6231Z" fill="#E2433D"/>
</g>
<defs>
<clipPath id="clip0_2_234">
<rect width="30" height="30" fill="white"/>
</clipPath>
</defs>
</svg>
