<svg width="239" height="30" viewBox="0 0 239 30" fill="none" xmlns="http://www.w3.org/2000/svg">
<path d="M36.992 24V7.2H40.208L47.36 19.056H45.656L52.688 7.2H55.88L55.928 24H52.28L52.256 12.792H52.928L47.312 22.224H45.56L39.824 12.792H40.64V24H36.992ZM61.2819 28.848C60.6099 28.848 59.9459 28.744 59.2899 28.536C58.6339 28.328 58.0979 28.04 57.6819 27.672L59.0499 25.008C59.3379 25.264 59.6659 25.464 60.0339 25.608C60.4179 25.752 60.7939 25.824 61.1619 25.824C61.6899 25.824 62.1059 25.696 62.4099 25.44C62.7299 25.2 63.0179 24.792 63.2739 24.216L63.9459 22.632L64.2339 22.224L68.8659 11.088H72.4659L66.6339 24.792C66.2179 25.832 65.7379 26.648 65.1939 27.24C64.6659 27.832 64.0739 28.248 63.4179 28.488C62.7779 28.728 62.0659 28.848 61.2819 28.848ZM63.4899 24.504L57.7299 11.088H61.5939L66.0579 21.888L63.4899 24.504ZM77.8576 14.76H85.9216V17.88H77.8576V14.76ZM78.1456 24H74.2576V7.2H86.9536V10.32H78.1456V24ZM89.3218 24V11.088H93.0658V24H89.3218ZM91.1938 9.288C90.5058 9.288 89.9458 9.088 89.5138 8.688C89.0818 8.288 88.8658 7.792 88.8658 7.2C88.8658 6.608 89.0818 6.112 89.5138 5.712C89.9458 5.312 90.5058 5.112 91.1938 5.112C91.8818 5.112 92.4418 5.304 92.8738 5.688C93.3058 6.056 93.5218 6.536 93.5218 7.128C93.5218 7.752 93.3058 8.272 92.8738 8.688C92.4578 9.088 91.8978 9.288 91.1938 9.288ZM101.821 24.192C100.301 24.192 99.1165 23.808 98.2685 23.04C97.4205 22.256 96.9965 21.096 96.9965 19.56V8.232H100.741V19.512C100.741 20.056 100.885 20.48 101.173 20.784C101.461 21.072 101.853 21.216 102.349 21.216C102.941 21.216 103.445 21.056 103.861 20.736L104.869 23.376C104.485 23.648 104.021 23.856 103.477 24C102.949 24.128 102.397 24.192 101.821 24.192ZM95.0045 14.256V11.376H103.957V14.256H95.0045ZM114.818 10.896C115.842 10.896 116.754 11.104 117.554 11.52C118.37 11.92 119.01 12.544 119.474 13.392C119.938 14.224 120.17 15.296 120.17 16.608V24H116.426V17.184C116.426 16.144 116.194 15.376 115.73 14.88C115.282 14.384 114.642 14.136 113.81 14.136C113.218 14.136 112.682 14.264 112.202 14.52C111.738 14.76 111.37 15.136 111.098 15.648C110.842 16.16 110.714 16.816 110.714 17.616V24H106.97V11.088H110.546V14.664L109.874 13.584C110.338 12.72 111.002 12.056 111.866 11.592C112.73 11.128 113.714 10.896 114.818 10.896ZM130.066 24.192C128.594 24.192 127.298 23.904 126.178 23.328C125.074 22.752 124.218 21.968 123.61 20.976C123.002 19.968 122.698 18.824 122.698 17.544C122.698 16.248 122.994 15.104 123.586 14.112C124.194 13.104 125.018 12.32 126.058 11.76C127.098 11.184 128.274 10.896 129.586 10.896C130.85 10.896 131.986 11.168 132.994 11.712C134.018 12.24 134.826 13.008 135.418 14.016C136.01 15.008 136.306 16.2 136.306 17.592C136.306 17.736 136.298 17.904 136.282 18.096C136.266 18.272 136.25 18.44 136.234 18.6H125.746V16.416H134.266L132.826 17.064C132.826 16.392 132.69 15.808 132.418 15.312C132.146 14.816 131.77 14.432 131.29 14.16C130.81 13.872 130.25 13.728 129.61 13.728C128.97 13.728 128.402 13.872 127.906 14.16C127.426 14.432 127.05 14.824 126.778 15.336C126.506 15.832 126.37 16.424 126.37 17.112V17.688C126.37 18.392 126.522 19.016 126.826 19.56C127.146 20.088 127.586 20.496 128.146 20.784C128.722 21.056 129.394 21.192 130.162 21.192C130.85 21.192 131.45 21.088 131.962 20.88C132.49 20.672 132.97 20.36 133.402 19.944L135.394 22.104C134.802 22.776 134.058 23.296 133.162 23.664C132.266 24.016 131.234 24.192 130.066 24.192ZM143.142 24.192C142.038 24.192 140.974 24.064 139.95 23.808C138.942 23.536 138.142 23.2 137.55 22.8L138.798 20.112C139.39 20.48 140.086 20.784 140.886 21.024C141.702 21.248 142.502 21.36 143.286 21.36C144.15 21.36 144.758 21.256 145.11 21.048C145.478 20.84 145.662 20.552 145.662 20.184C145.662 19.88 145.518 19.656 145.23 19.512C144.958 19.352 144.59 19.232 144.126 19.152C143.662 19.072 143.15 18.992 142.59 18.912C142.046 18.832 141.494 18.728 140.934 18.6C140.374 18.456 139.862 18.248 139.398 17.976C138.934 17.704 138.558 17.336 138.27 16.872C137.998 16.408 137.862 15.808 137.862 15.072C137.862 14.256 138.094 13.536 138.558 12.912C139.038 12.288 139.726 11.8 140.622 11.448C141.518 11.08 142.59 10.896 143.838 10.896C144.718 10.896 145.614 10.992 146.526 11.184C147.438 11.376 148.198 11.656 148.806 12.024L147.558 14.688C146.934 14.32 146.302 14.072 145.662 13.944C145.038 13.8 144.43 13.728 143.838 13.728C143.006 13.728 142.398 13.84 142.014 14.064C141.63 14.288 141.438 14.576 141.438 14.928C141.438 15.248 141.574 15.488 141.846 15.648C142.134 15.808 142.51 15.936 142.974 16.032C143.438 16.128 143.942 16.216 144.486 16.296C145.046 16.36 145.606 16.464 146.166 16.608C146.726 16.752 147.23 16.96 147.678 17.232C148.142 17.488 148.518 17.848 148.806 18.312C149.094 18.76 149.238 19.352 149.238 20.088C149.238 20.888 148.998 21.6 148.518 22.224C148.038 22.832 147.342 23.312 146.43 23.664C145.534 24.016 144.438 24.192 143.142 24.192ZM155.892 24.192C154.788 24.192 153.724 24.064 152.7 23.808C151.692 23.536 150.892 23.2 150.3 22.8L151.548 20.112C152.14 20.48 152.836 20.784 153.636 21.024C154.452 21.248 155.252 21.36 156.036 21.36C156.9 21.36 157.508 21.256 157.86 21.048C158.228 20.84 158.412 20.552 158.412 20.184C158.412 19.88 158.268 19.656 157.98 19.512C157.708 19.352 157.34 19.232 156.876 19.152C156.412 19.072 155.9 18.992 155.34 18.912C154.796 18.832 154.244 18.728 153.684 18.6C153.124 18.456 152.612 18.248 152.148 17.976C151.684 17.704 151.308 17.336 151.02 16.872C150.748 16.408 150.612 15.808 150.612 15.072C150.612 14.256 150.844 13.536 151.308 12.912C151.788 12.288 152.476 11.8 153.372 11.448C154.268 11.08 155.34 10.896 156.588 10.896C157.468 10.896 158.364 10.992 159.276 11.184C160.188 11.376 160.948 11.656 161.556 12.024L160.308 14.688C159.684 14.32 159.052 14.072 158.412 13.944C157.788 13.8 157.18 13.728 156.588 13.728C155.756 13.728 155.148 13.84 154.764 14.064C154.38 14.288 154.188 14.576 154.188 14.928C154.188 15.248 154.324 15.488 154.596 15.648C154.884 15.808 155.26 15.936 155.724 16.032C156.188 16.128 156.692 16.216 157.236 16.296C157.796 16.36 158.356 16.464 158.916 16.608C159.476 16.752 159.98 16.96 160.428 17.232C160.892 17.488 161.268 17.848 161.556 18.312C161.844 18.76 161.988 19.352 161.988 20.088C161.988 20.888 161.748 21.6 161.268 22.224C160.788 22.832 160.092 23.312 159.18 23.664C158.284 24.016 157.188 24.192 155.892 24.192ZM170.082 24.288C168.738 24.288 167.45 24.112 166.218 23.76C164.986 23.392 163.994 22.92 163.242 22.344L164.562 19.416C165.282 19.928 166.13 20.352 167.106 20.688C168.098 21.008 169.098 21.168 170.106 21.168C170.874 21.168 171.49 21.096 171.954 20.952C172.434 20.792 172.786 20.576 173.01 20.304C173.234 20.032 173.346 19.72 173.346 19.368C173.346 18.92 173.17 18.568 172.818 18.312C172.466 18.04 172.002 17.824 171.426 17.664C170.85 17.488 170.21 17.328 169.506 17.184C168.818 17.024 168.122 16.832 167.418 16.608C166.73 16.384 166.098 16.096 165.522 15.744C164.946 15.392 164.474 14.928 164.106 14.352C163.754 13.776 163.578 13.04 163.578 12.144C163.578 11.184 163.834 10.312 164.346 9.528C164.874 8.728 165.658 8.096 166.698 7.632C167.754 7.152 169.074 6.912 170.658 6.912C171.714 6.912 172.754 7.04 173.778 7.296C174.802 7.536 175.706 7.904 176.49 8.4L175.29 11.352C174.506 10.904 173.722 10.576 172.938 10.368C172.154 10.144 171.386 10.032 170.634 10.032C169.882 10.032 169.266 10.12 168.786 10.296C168.306 10.472 167.962 10.704 167.754 10.992C167.546 11.264 167.442 11.584 167.442 11.952C167.442 12.384 167.618 12.736 167.97 13.008C168.322 13.264 168.786 13.472 169.362 13.632C169.938 13.792 170.57 13.952 171.258 14.112C171.962 14.272 172.658 14.456 173.346 14.664C174.05 14.872 174.69 15.152 175.266 15.504C175.842 15.856 176.306 16.32 176.658 16.896C177.026 17.472 177.21 18.2 177.21 19.08C177.21 20.024 176.946 20.888 176.418 21.672C175.89 22.456 175.098 23.088 174.042 23.568C173.002 24.048 171.682 24.288 170.082 24.288ZM187.235 24.192C186.147 24.192 185.195 23.952 184.379 23.472C183.563 22.992 182.923 22.264 182.459 21.288C182.011 20.296 181.787 19.048 181.787 17.544C181.787 16.024 182.003 14.776 182.435 13.8C182.867 12.824 183.491 12.096 184.307 11.616C185.123 11.136 186.099 10.896 187.235 10.896C188.451 10.896 189.539 11.176 190.499 11.736C191.475 12.28 192.243 13.048 192.803 14.04C193.379 15.032 193.667 16.2 193.667 17.544C193.667 18.904 193.379 20.08 192.803 21.072C192.243 22.064 191.475 22.832 190.499 23.376C189.539 23.92 188.451 24.192 187.235 24.192ZM179.603 28.656V11.088H183.179V13.728L183.107 17.568L183.347 21.384V28.656H179.603ZM186.587 21.12C187.211 21.12 187.763 20.976 188.243 20.688C188.739 20.4 189.131 19.992 189.419 19.464C189.723 18.92 189.875 18.28 189.875 17.544C189.875 16.792 189.723 16.152 189.419 15.624C189.131 15.096 188.739 14.688 188.243 14.4C187.763 14.112 187.211 13.968 186.587 13.968C185.963 13.968 185.403 14.112 184.907 14.4C184.411 14.688 184.019 15.096 183.731 15.624C183.443 16.152 183.299 16.792 183.299 17.544C183.299 18.28 183.443 18.92 183.731 19.464C184.019 19.992 184.411 20.4 184.907 20.688C185.403 20.976 185.963 21.12 186.587 21.12ZM203.882 24V21.48L203.642 20.928V16.416C203.642 15.616 203.394 14.992 202.898 14.544C202.418 14.096 201.674 13.872 200.666 13.872C199.978 13.872 199.298 13.984 198.626 14.208C197.97 14.416 197.41 14.704 196.946 15.072L195.602 12.456C196.306 11.96 197.154 11.576 198.146 11.304C199.138 11.032 200.146 10.896 201.17 10.896C203.138 10.896 204.666 11.36 205.754 12.288C206.842 13.216 207.386 14.664 207.386 16.632V24H203.882ZM199.946 24.192C198.938 24.192 198.074 24.024 197.354 23.688C196.634 23.336 196.082 22.864 195.698 22.272C195.314 21.68 195.122 21.016 195.122 20.28C195.122 19.512 195.306 18.84 195.674 18.264C196.058 17.688 196.658 17.24 197.474 16.92C198.29 16.584 199.354 16.416 200.666 16.416H204.098V18.6H201.074C200.194 18.6 199.586 18.744 199.25 19.032C198.93 19.32 198.77 19.68 198.77 20.112C198.77 20.592 198.954 20.976 199.322 21.264C199.706 21.536 200.226 21.672 200.882 21.672C201.506 21.672 202.066 21.528 202.562 21.24C203.058 20.936 203.418 20.496 203.642 19.92L204.218 21.648C203.946 22.48 203.45 23.112 202.73 23.544C202.01 23.976 201.082 24.192 199.946 24.192ZM217.109 24.192C215.717 24.192 214.477 23.912 213.389 23.352C212.301 22.776 211.445 21.984 210.821 20.976C210.213 19.968 209.909 18.824 209.909 17.544C209.909 16.248 210.213 15.104 210.821 14.112C211.445 13.104 212.301 12.32 213.389 11.76C214.477 11.184 215.717 10.896 217.109 10.896C218.469 10.896 219.653 11.184 220.661 11.76C221.669 12.32 222.413 13.128 222.893 14.184L219.989 15.744C219.653 15.136 219.229 14.688 218.717 14.4C218.221 14.112 217.677 13.968 217.085 13.968C216.445 13.968 215.869 14.112 215.357 14.4C214.845 14.688 214.437 15.096 214.133 15.624C213.845 16.152 213.701 16.792 213.701 17.544C213.701 18.296 213.845 18.936 214.133 19.464C214.437 19.992 214.845 20.4 215.357 20.688C215.869 20.976 216.445 21.12 217.085 21.12C217.677 21.12 218.221 20.984 218.717 20.712C219.229 20.424 219.653 19.968 219.989 19.344L222.893 20.928C222.413 21.968 221.669 22.776 220.661 23.352C219.653 23.912 218.469 24.192 217.109 24.192ZM231.292 24.192C229.82 24.192 228.524 23.904 227.404 23.328C226.3 22.752 225.444 21.968 224.836 20.976C224.228 19.968 223.924 18.824 223.924 17.544C223.924 16.248 224.22 15.104 224.812 14.112C225.42 13.104 226.244 12.32 227.284 11.76C228.324 11.184 229.5 10.896 230.812 10.896C232.076 10.896 233.212 11.168 234.22 11.712C235.244 12.24 236.052 13.008 236.644 14.016C237.236 15.008 237.532 16.2 237.532 17.592C237.532 17.736 237.524 17.904 237.508 18.096C237.492 18.272 237.476 18.44 237.46 18.6H226.972V16.416H235.492L234.052 17.064C234.052 16.392 233.916 15.808 233.644 15.312C233.372 14.816 232.996 14.432 232.516 14.16C232.036 13.872 231.476 13.728 230.836 13.728C230.196 13.728 229.628 13.872 229.132 14.16C228.652 14.432 228.276 14.824 228.004 15.336C227.732 15.832 227.596 16.424 227.596 17.112V17.688C227.596 18.392 227.748 19.016 228.052 19.56C228.372 20.088 228.812 20.496 229.372 20.784C229.948 21.056 230.62 21.192 231.388 21.192C232.076 21.192 232.676 21.088 233.188 20.88C233.716 20.672 234.196 20.36 234.628 19.944L236.62 22.104C236.028 22.776 235.284 23.296 234.388 23.664C233.492 24.016 232.46 24.192 231.292 24.192Z" fill="url(#paint0_linear_2_78)"/>
<g clip-path="url(#clip0_2_78)">
<path d="M26.2793 -0.917969C26.1855 -0.871094 25.8516 -0.583984 25.5469 -0.273438L24.9902 0.289062L26.8535 2.14648L28.7109 4.00977L29.2969 3.42383C29.9355 2.79102 30.0469 2.58594 29.9766 2.18164C29.9355 1.98828 29.748 1.77148 28.5469 0.558594C27.7852 -0.208984 27.0762 -0.871094 26.9707 -0.917969C26.7363 -1.01758 26.5078 -1.01758 26.2793 -0.917969Z" fill="#E2433D"/>
<path d="M20.3555 -0.44922C19.875 -0.332032 19.5938 -0.121095 18.7383 0.740233L17.9297 1.54883L22.6934 6.3125L27.4512 11.0703L28.3125 10.209C28.7812 9.72852 29.2207 9.23633 29.2852 9.10742C29.584 8.50977 29.5781 7.77734 29.2617 7.20898C29.1621 7.01562 27.9844 5.80273 25.5293 3.35352C21.6211 -0.54297 21.7559 -0.425782 21.0059 -0.496095C20.8008 -0.513673 20.5312 -0.496095 20.3555 -0.44922Z" fill="#E2433D"/>
<path d="M13.9922 1.6543C13.5762 1.8125 13.2656 2.04102 12.7383 2.58594C12.1289 3.20117 12.0117 3.44141 12.123 3.83398C12.1758 4.0332 12.5449 4.42578 14.4434 6.32422L16.6992 8.58008L13.1426 12.1367L9.58008 15.6992L7.29492 13.4199C5.17383 11.3047 4.99219 11.1348 4.76367 11.0996C4.58203 11.0703 4.45312 11.0879 4.26562 11.1758C3.93164 11.3281 2.99414 12.2891 2.77734 12.7109C2.625 13.0039 2.60742 13.0859 2.60742 13.6191C2.60742 14.1699 2.61914 14.2285 2.80078 14.5566C2.95898 14.8496 3.95508 15.875 8.57227 20.4863C13.084 24.9922 14.2148 26.0938 14.4727 26.2285C14.7656 26.375 14.8535 26.3926 15.3809 26.3926C15.9141 26.3926 15.9961 26.375 16.2891 26.2227C16.7109 26.0059 17.6719 25.0684 17.8242 24.7344C17.9121 24.5469 17.9297 24.418 17.9004 24.2363C17.8594 24.0078 17.6953 23.8262 15.5801 21.7051L13.3008 19.4199L16.8633 15.8574L20.4199 12.3008L22.6758 14.5566C25.1426 17.0293 25.1309 17.0176 25.6348 16.8711C25.9629 16.7715 26.9355 15.8164 27.1992 15.3242C27.3809 14.9844 27.3926 14.9316 27.3926 14.3809C27.3926 13.8535 27.375 13.7656 27.2285 13.4727C27.0938 13.2148 25.9922 12.084 21.4863 7.57227C15.2227 1.29688 15.5918 1.625 14.707 1.5957C14.3848 1.58398 14.1328 1.60742 13.9922 1.6543Z" fill="#E2433D"/>
<path d="M1.68752 17.7911C1.21877 18.2715 0.779319 18.7637 0.714866 18.8926C0.427757 19.4668 0.421897 20.1875 0.709007 20.75C0.884788 21.1016 7.82229 28.0567 8.20901 28.2676C8.79494 28.584 9.53908 28.584 10.1426 28.2559C10.2891 28.1797 10.7813 27.7403 11.2383 27.2832L12.0703 26.4512L7.30666 21.6875L2.54885 16.9297L1.68752 17.7911Z" fill="#E2433D"/>
<path d="M0.662127 24.6231C0.187517 25.1035 0.0586109 25.2676 0.029314 25.4492C-0.0585766 25.9004 0.0175953 26 1.53517 27.5176C2.7715 28.7422 2.9883 28.9356 3.18166 28.9766C3.58595 29.0469 3.79103 28.9356 4.42385 28.2969L5.00978 27.711L3.16408 25.8652C2.15041 24.8516 1.30666 24.0195 1.28322 24.0195C1.26564 24.0195 0.984392 24.2891 0.662127 24.6231Z" fill="#E2433D"/>
</g>
<defs>
<linearGradient id="paint0_linear_2_78" x1="35" y1="15" x2="239" y2="15" gradientUnits="userSpaceOnUse">
<stop stop-color="#E2433D"/>
<stop offset="1" stop-color="#F2CB0F"/>
</linearGradient>
<clipPath id="clip0_2_78">
<rect width="30" height="30" fill="white"/>
</clipPath>
</defs>
</svg>
